# xmcd CD Database Entry
#
# Track frame offsets:
# 180
# 10645
# 30071
# 45986
# 67337
# 84282
# 104356
# 125621
#
# Disc length: 1926 seconds
#
# Revision: 1
# Processed by: cddbd v1.4b42PL1 Copyright (c) Steve Scherf et al.
# Submitted via: tcd 2.0b
#
DISCID=55078408
DTITLE=Real de catorce - Tiempos obscuros
DYEAR=1900
DGENRE=
TTITLE0=Pájaro loco
TTITLE1=El ángel
TTITLE2=Un par de ojos
TTITLE3=Un mediodía triste
TTITLE4=Suena el viento
TTITLE5=La medicina
TTITLE6=Con el alma borracha
TTITLE7=Al rojo de la tarde
EXTD=
EXTT0=
EXTT1=
EXTT2=
EXTT3=
EXTT4=
EXTT5=
EXTT6=
EXTT7=
PLAYORDER=
